<?xml version="1.0" standalone="no"?>
<!DOCTYPE svg PUBLIC "-//W3C//DTD SVG 20010904//EN"
 "http://www.w3.org/TR/2001/REC-SVG-20010904/DTD/svg10.dtd">
<svg version="1.0" xmlns="http://www.w3.org/2000/svg"
 width="128.000000pt" height="128.000000pt" viewBox="0 0 128.000000 128.000000"
 preserveAspectRatio="xMidYMid meet">
<metadata>
Created by potrace 1.15, written by Peter Selinger 2001-2017
</metadata>
<g transform="translate(0.000000,128.000000) scale(0.100000,-0.100000)"
fill="#000000" stroke="none">
<path d="M590 1135 c-44 -133 -45 -134 -85 -152 -22 -10 -56 -32 -75 -49 l-35
-31 -100 23 c-55 13 -104 22 -109 21 -4 -2 14 -32 42 -69 28 -36 48 -69 45
-72 -4 -3 -1 -6 5 -6 23 0 33 -38 24 -95 -25 -155 74 -338 212 -390 l43 -16
40 -125 c22 -69 43 -126 48 -127 4 -1 20 34 36 78 16 44 32 87 36 95 3 8 7 17
8 20 13 52 19 62 55 80 22 11 40 17 40 13 0 -4 6 0 13 8 6 8 23 24 37 36 l25
22 105 -24 c57 -13 106 -23 107 -21 2 2 -28 44 -66 94 -66 86 -69 93 -60 124
19 69 4 180 -35 255 -14 29 -92 124 -106 130 -3 2 -28 12 -57 24 l-52 22 -41
126 c-23 69 -45 129 -48 133 -4 4 -27 -53 -52 -127z"/>
</g>
</svg>
